<svg width="20" height="20" viewBox="0 0 20 20" fill="none" xmlns="http://www.w3.org/2000/svg">
<path d="M2.78546 6.48171C2.97391 6.02673 3.25014 5.61333 3.59837 5.26511C3.94659 4.91689 4.35998 4.64066 4.81496 4.4522C5.26993 4.26375 5.75757 4.16675 6.25003 4.16675C6.74249 4.16675 7.23013 4.26375 7.68511 4.4522C8.14008 4.64066 8.55348 4.91689 8.9017 5.26511L10 6.36345L11.0984 5.26511C11.8016 4.56185 12.7555 4.16676 13.75 4.16676C14.7446 4.16676 15.6984 4.56185 16.4017 5.26511C17.105 5.96838 17.5001 6.92221 17.5001 7.91678C17.5001 8.91135 17.105 9.86518 16.4017 10.5684L10 16.9701L3.59837 10.5684C3.25014 10.2202 2.97391 9.80683 2.78546 9.35185C2.597 8.89688 2.5 8.40924 2.5 7.91678C2.5 7.42432 2.597 6.93668 2.78546 6.48171Z" stroke="#2F302C" stroke-width="1.5" stroke-linecap="round" stroke-linejoin="round"/>
</svg>
